<svg width="24" height="22" viewBox="0 0 24 22" fill="none" xmlns="http://www.w3.org/2000/svg">
<path d="M12.2534 1.98086C15.392 1.98086 15.7636 1.99375 16.998 2.04531C18.1451 2.09258 18.7645 2.27305 19.1775 2.42344C19.7235 2.62109 20.1181 2.86172 20.5265 3.24414C20.9395 3.63086 21.1918 3.99609 21.4029 4.50742C21.5635 4.89414 21.7562 5.47852 21.8067 6.54844C21.8618 7.70859 21.8755 8.05664 21.8755 10.9914C21.8755 13.9305 21.8618 14.2785 21.8067 15.4344C21.7562 16.5086 21.5635 17.0887 21.4029 17.4754C21.1918 17.9867 20.9349 18.3563 20.5265 18.7387C20.1135 19.1254 19.7235 19.3617 19.1775 19.5594C18.7645 19.7098 18.1405 19.8902 16.998 19.9375C15.7591 19.9891 15.3874 20.002 12.2534 20.002C9.11491 20.002 8.74324 19.9891 7.50893 19.9375C6.3618 19.8902 5.74236 19.7098 5.32939 19.5594C4.78336 19.3617 4.38875 19.1211 3.98037 18.7387C3.56741 18.352 3.31504 17.9867 3.10397 17.4754C2.94337 17.0887 2.75065 16.5043 2.70018 15.4344C2.64512 14.2742 2.63135 13.9262 2.63135 10.9914C2.63135 8.05234 2.64512 7.7043 2.70018 6.54844C2.75065 5.47422 2.94337 4.89414 3.10397 4.50742C3.31504 3.99609 3.57199 3.62656 3.98037 3.24414C4.39334 2.85742 4.78336 2.62109 5.32939 2.42344C5.74236 2.27305 6.36639 2.09258 7.50893 2.04531C8.74324 1.99375 9.11491 1.98086 12.2534 1.98086ZM12.2534 0C9.06443 0 8.66523 0.0128906 7.41257 0.0644531C6.1645 0.116016 5.30645 0.305078 4.56311 0.575781C3.78765 0.859375 3.1315 1.2332 2.47993 1.84766C1.82377 2.45781 1.42457 3.07227 1.12173 3.79414C0.832658 4.49453 0.630764 5.29375 0.575702 6.4625C0.52064 7.63984 0.506874 8.01367 0.506874 11C0.506874 13.9863 0.52064 14.3602 0.575702 15.5332C0.630764 16.702 0.832658 17.5055 1.12173 18.2016C1.42457 18.9277 1.82377 19.5422 2.47993 20.1523C3.1315 20.7625 3.78765 21.1406 4.55852 21.4199C5.30645 21.6906 6.15991 21.8797 7.40798 21.9312C8.66064 21.9828 9.05984 21.9957 12.2489 21.9957C15.4379 21.9957 15.8371 21.9828 17.0897 21.9312C18.3378 21.8797 19.1958 21.6906 19.9392 21.4199C20.7101 21.1406 21.3662 20.7625 22.0178 20.1523C22.6693 19.5422 23.0731 18.9277 23.3714 18.2059C23.6605 17.5055 23.8624 16.7063 23.9174 15.5375C23.9725 14.3645 23.9862 13.9906 23.9862 11.0043C23.9862 8.01797 23.9725 7.64414 23.9174 6.47109C23.8624 5.30234 23.6605 4.49883 23.3714 3.80273C23.0823 3.07227 22.6831 2.45781 22.027 1.84766C21.3754 1.2375 20.7192 0.859375 19.9484 0.580078C19.2004 0.309375 18.347 0.120313 17.0989 0.06875C15.8417 0.0128906 15.4425 0 12.2534 0Z" fill="white"/>
</svg>
