<svg width="25" height="18" viewBox="0 0 25 18" fill="none" xmlns="http://www.w3.org/2000/svg">
<path d="M8.14414 17.9375C17.0073 17.9375 21.8564 11.0595 21.8564 5.09674C21.8564 4.90338 21.8518 4.70572 21.8427 4.51236C22.786 3.87354 23.6 3.08226 24.2466 2.17572C23.368 2.54175 22.4353 2.7808 21.4802 2.8847C22.4858 2.3202 23.2388 1.43338 23.5996 0.38865C22.6535 0.913708 21.6188 1.28409 20.54 1.48392C19.8131 0.760628 18.8519 0.28172 17.8052 0.121244C16.7585 -0.0392326 15.6845 0.12766 14.7492 0.596119C13.8139 1.06458 13.0695 1.80851 12.631 2.7129C12.1925 3.61729 12.0844 4.63176 12.3233 5.59947C10.4076 5.50945 8.53352 5.04343 6.82248 4.23162C5.11144 3.41982 3.60168 2.28035 2.39107 0.887088C1.77578 1.8805 1.5875 3.05604 1.8645 4.17478C2.14149 5.29352 2.86299 6.27152 3.88234 6.91002C3.11707 6.88727 2.36857 6.69432 1.69867 6.34713V6.40299C1.69798 7.4455 2.08285 8.45607 2.78785 9.2629C3.49286 10.0697 4.47448 10.623 5.56586 10.8288C4.85696 11.0104 4.11294 11.0369 3.39137 10.9061C3.69933 11.8027 4.29852 12.5868 5.10532 13.1492C5.91211 13.7115 6.88624 14.0239 7.89177 14.0428C6.18468 15.2985 4.07593 15.9796 1.90515 15.9764C1.52018 15.9759 1.13559 15.9538 0.753437 15.9103C2.95871 17.2351 5.52404 17.9388 8.14414 17.9375Z" fill="white"/>
</svg>
